<svg width="32" height="32" viewBox="0 0 32 32" fill="none" xmlns="http://www.w3.org/2000/svg">
<circle cx="16.2012" cy="16.6328" r="13" stroke="#FF5000"/>
<path d="M16.105 10.3398C16.0254 10.5786 15.6925 11.0068 15.1309 11.5553C14.3608 12.3076 13.0118 13.1737 12.8168 13.3351" stroke="#FF5000" stroke-width="0.7" stroke-linecap="round"/>
<path d="M16.2974 10.3398C16.377 10.5786 16.7098 11.0068 17.2714 11.5553C18.0416 12.3076 19.3905 13.1737 19.5855 13.3351" stroke="#FF5000" stroke-width="0.7" stroke-linecap="round"/>
<path d="M16.2012 10.48L16.2012 22.2095" stroke="#FF5000" stroke-linecap="round"/>
<path d="M16.105 22.9258C16.0254 22.687 15.6925 22.2588 15.1309 21.7103C14.3608 20.9581 13.0118 20.0919 12.8168 19.9305" stroke="#FF5000" stroke-width="0.7" stroke-linecap="round"/>
<path d="M16.2974 22.9258C16.377 22.687 16.7098 22.2588 17.2714 21.7103C18.0416 20.9581 19.3905 20.0919 19.5855 19.9305" stroke="#FF5000" stroke-width="0.7" stroke-linecap="round"/>
<path d="M16.2012 22.7856L16.2012 11.0562" stroke="#FF5000" stroke-linecap="round"/>
</svg>
